<?xml version="1.0" encoding="UTF-8" standalone="no"?>
<!DOCTYPE svg PUBLIC "-//W3C//DTD SVG 1.1//EN" "http://www.w3.org/Graphics/SVG/1.1/DTD/svg11.dtd">
<svg version="1.1" xmlns="http://www.w3.org/2000/svg" xmlns:xlink="http://www.w3.org/1999/xlink" preserveAspectRatio="xMidYMid meet" viewBox="0 0 640 640" width="20" height="20"><defs><path d="M288.8 146.09C288.8 226.72 224.09 292.18 144.4 292.18C64.7 292.18 0 226.72 0 146.09C0 65.46 64.7 0 144.4 0C224.09 0 288.8 65.46 288.8 146.09Z" id="c1FjQnjTPy"></path><path d="M288.8 493.91C288.8 574.54 224.09 640 144.4 640C64.7 640 0 574.54 0 493.91C0 413.28 64.7 347.82 144.4 347.82C224.09 347.82 288.8 413.28 288.8 493.91Z" id="b2UFVVQ9yI"></path><path d="M468.58 93.68C497.07 93.68 520.16 116.78 520.16 145.26C520.16 218.95 520.16 388.42 520.16 462.11C520.16 490.59 497.07 513.68 468.58 513.68C458.26 513.68 478.89 513.68 468.58 513.68C440.09 513.68 417 490.59 417 462.11C417 388.42 417 218.95 417 145.26C417 116.78 440.09 93.68 468.58 93.68C478.89 93.68 458.26 93.68 468.58 93.68Z" id="ahaA3qt6I"></path><path d="M311.72 308.48C331.24 288.95 362.9 288.95 382.43 308.48C413.49 339.54 471.3 397.35 502.36 428.41C521.88 447.93 521.88 479.59 502.36 499.12C495.28 506.19 509.43 492.05 502.36 499.12C482.83 518.64 451.17 518.64 431.64 499.12C400.59 468.06 342.77 410.25 311.72 379.19C292.19 359.66 292.19 328.01 311.72 308.48C318.79 301.41 304.65 315.55 311.72 308.48Z" id="i1FBQjpVHV"></path><path d="M624.46 307.84C604.93 288.31 573.28 288.31 553.75 307.84C522.69 338.9 464.88 396.71 433.82 427.77C414.3 447.29 414.3 478.95 433.82 498.48C440.89 505.55 426.75 491.41 433.82 498.48C453.35 518 485.01 518 504.53 498.48C535.59 467.42 593.4 409.61 624.46 378.55C643.99 359.02 643.99 327.37 624.46 307.84C617.39 300.77 631.53 314.91 624.46 307.84Z" id="b7tdwQUrK"></path></defs><g><g><g><use xlink:href="#c1FjQnjTPy" opacity="1" fill="#ffffff" fill-opacity="1"></use></g><g><use xlink:href="#b2UFVVQ9yI" opacity="1" fill="#ffffff" fill-opacity="1"></use></g><g><use xlink:href="#ahaA3qt6I" opacity="1" fill="#ffffff" fill-opacity="1"></use></g><g><use xlink:href="#i1FBQjpVHV" opacity="1" fill="#ffffff" fill-opacity="1"></use></g><g><use xlink:href="#b7tdwQUrK" opacity="1" fill="#ffffff" fill-opacity="1"></use></g></g></g></svg>